# File created by Blade
# Date/Time:  Thu Jan 22 16:16:16 2015
#---------------------------------------------------------
:version 1.10
:name HOM
:units
  mass 1.0
  length 1.000000
  angle deg
:documentation
     Acclaim Skeleton File
:root
   axis xyz
   order TX TY TZ RX RY RZ
   position 0.000000 0.000000 0.000000
   orientation 0 0 0
:bonedata
   begin
      id 1
      name RightUpLeg_dum
      direction -1.000000 0.000000 0.000000
      length 3.766986
      axis 0.0 0.0 0.0 xyz
   end
   begin
      id 2
      name LeftUpLeg_dum
      direction 1.000000 0.000000 0.000000
      length 3.766986
      axis 0.0 0.0 0.0 xyz
   end
   begin
      id 3
      name Spine_dum
      direction 0.000000 1.000000 0.000000
      length 7.779697
      axis 0.0 0.0 0.0 xyz
   end
   begin
      id 4
      name RightUpLeg
      direction 0.000000 -1.000000 0.000000
      length 18.017682
      axis 0.0 0.0 0.0 xyz
      dof rx ry rz
   end
   begin
      id 5
      name RightLeg
      direction 0.000000 -1.000000 0.000000
      length 16.881075
      axis 0.0 0.0 0.0 xyz
      dof rx ry rz
   end
   begin
      id 6
      name RightFoot
      direction 0.000000 -0.258819 0.965926
      length 5.770812
      axis 15.0 0.0 0.0 xyz
      dof rx ry rz
   end
   begin
      id 7
      name RightToeBase
      direction 0.000000 0.000000 1.000000
      length 2.952750
      axis 0.0 0.0 0.0 xyz
      dof rx ry rz
   end
   begin
      id 8
      name LeftUpLeg
      direction 0.000000 -1.000000 0.000000
      length 18.017682
      axis 0.0 0.0 0.0 xyz
      dof rx ry rz
   end
   begin
      id 9
      name LeftLeg
      direction 0.000000 -1.000000 0.000000
      length 16.881075
      axis 0.0 0.0 0.0 xyz
      dof rx ry rz
   end
   begin
      id 10
      name LeftFoot
      direction 0.000000 -0.258819 0.965926
      length 5.770812
      axis 15.0 0.0 0.0 xyz
      dof rx ry rz
   end
   begin
      id 11
      name LeftToeBase
      direction 0.000000 0.000000 1.000000
      length 2.952750
      axis 0.0 0.0 0.0 xyz
      dof rx ry rz
   end
   begin
      id 12
      name Spine
      direction 0.000000 1.000000 0.000000
      length 0.000000
      axis 0.0 0.0 0.0 xyz
      dof rx ry rz
   end
   begin
      id 13
      name Spine_dum1
      direction 0.000000 1.000000 0.000000
      length 10.941760
      axis 0.0 0.0 0.0 xyz
   end
   begin
      id 14
      name Spine_dum2
      direction 0.000000 1.000000 0.000000
      length 10.941760
      axis 0.0 0.0 0.0 xyz
   end
   begin
      id 15
      name Spine_dum3
      direction 0.000000 1.000000 0.000000
      length 16.646042
      axis 0.0 0.0 0.0 xyz
   end
   begin
      id 16
      name RightShoulder
      direction -1.000000 0.000000 0.000000
      length 7.708937
      axis 0.0 0.0 90.0 xyz
      dof rx ry rz
   end
   begin
      id 17
      name RightArm
      direction -1.000000 0.000000 0.000000
      length 11.521345
      axis 0.0 0.0 90.0 xyz
      dof rx ry rz
   end
   begin
      id 18
      name RightForeArm
      direction -1.000000 0.000000 0.000000
      length 10.175898
      axis 0.0 0.0 90.0 xyz
      dof ry rz rx
   end
   begin
      id 19
      name RightHand
      direction -1.000000 0.000000 0.000000
      length 0.000000
      axis 0.0 0.0 90.0 xyz
      dof rx ry rz
   end
   begin
      id 20
      name RightHand_dum1
      direction -1.000000 0.000000 0.000000
      length 3.937000
      axis 0.0 0.0 90.0 xyz
   end
   begin
      id 21
      name RightHand_dum2
      direction 0.000000 0.000000 0.000000
      length 0.000000
      axis 0.0 0.0 90.0 xyz
   end
   begin
      id 22
      name RightHandThumb1
      direction 0.000000 0.000000 1.000000
      length 3.937000
      axis 0.0 0.0 90.0 xyz
      dof rx rz ry
   end
   begin
      id 23
      name LeftShoulder
      direction 1.000000 0.000000 0.000000
      length 7.708937
      axis 0.0 0.0 -90.0 xyz
      dof rx ry rz
   end
   begin
      id 24
      name LeftArm
      direction 1.000000 0.000000 0.000000
      length 11.521345
      axis 0.0 0.0 -90.0 xyz
      dof rx ry rz
   end
   begin
      id 25
      name LeftForeArm
      direction 1.000000 0.000000 0.000000
      length 10.175898
      axis 0.0 0.0 -90.0 xyz
      dof ry rz rx
   end
   begin
      id 26
      name LeftHand
      direction 1.000000 0.000000 0.000000
      length 0.000000
      axis 0.0 0.0 -90.0 xyz
      dof rx ry rz
   end
   begin
      id 27
      name LeftHand_dum1
      direction 1.000000 0.000000 0.000000
      length 3.937000
      axis 0.0 0.0 -90.0 xyz
   end
   begin
      id 28
      name LeftHand_dum2
      direction 0.000000 0.000000 0.000000
      length 0.000000
      axis 0.0 0.0 -90.0 xyz
   end
   begin
      id 29
      name LeftHandThumb1
      direction 0.000000 0.000000 1.000000
      length 3.937000
      axis 0.0 0.0 -90.0 xyz
      dof rx rz ry
   end
   begin
      id 30
      name Head
      direction 0.000000 1.000000 0.000000
      length 4.527550
      axis 0.0 0.0 0.0 xyz
      dof rx ry rz
   end
:hierarchy
   begin
      root RightUpLeg_dum LeftUpLeg_dum Spine_dum
      RightUpLeg_dum RightUpLeg
      LeftUpLeg_dum LeftUpLeg
      Spine_dum Spine
      RightUpLeg RightLeg
      RightLeg RightFoot
      RightFoot RightToeBase
      LeftUpLeg LeftLeg
      LeftLeg LeftFoot
      LeftFoot LeftToeBase
      Spine Spine_dum1 Spine_dum2 Spine_dum3
      Spine_dum1 RightShoulder
      Spine_dum2 LeftShoulder
      Spine_dum3 Head
      RightShoulder RightArm
      RightArm RightForeArm
      RightForeArm RightHand
      RightHand RightHand_dum1 RightHand_dum2
      RightHand_dum2 RightHandThumb1
      LeftShoulder LeftArm
      LeftArm LeftForeArm
      LeftForeArm LeftHand
      LeftHand LeftHand_dum1 LeftHand_dum2
      LeftHand_dum2 LeftHandThumb1
   end

# File created by Blade
# Date/Time:  Thu Jan 22 16:16:06 2015
# Frame Rate: 120.000 fps
#------------------------------------------------------
:FULLY-SPECIFIED
:DEGREES
1
root 0.365871 37.179240 -1.216117 -1.945664 -4.788807 1.478694
RightUpLeg 10.014578 -8.304024 -5.735199
RightLeg -5.886666 -0.000000 0.000000
RightFoot -10.774247 -16.047313 18.924095
RightToeBase 13.669429 -0.000000 -0.000000
LeftUpLeg 9.500850 1.276607 4.199829
LeftLeg -3.845103 -0.000000 0.000000
LeftFoot -7.427846 11.001276 -20.674588
LeftToeBase 7.951475 -0.000000 -0.000000
Spine 5.710501 -2.971751 -2.372846
RightShoulder -4.219762 -5.565399 -26.474397
RightArm 6.089834 32.263287 31.877783
RightForeArm 4.176059 -0.000000 16.813614
RightHand 0.790712 -0.000000 2.760892
RightHandThumb1 -24.326973 -0.000000 -32.862282
LeftShoulder -23.307499 28.701072 15.008188
LeftArm 50.557302 -53.024564 -59.506550
LeftForeArm 43.450332 -0.000000 2.731894
LeftHand -20.240402 -0.000000 -4.234084
LeftHandThumb1 -26.253704 0.000000 33.147579
Head -0.951442 13.124540 2.447182
2
root 0.352280 37.178755 -1.216968 -1.965304 -4.773106 1.475187
RightUpLeg 10.046367 -8.280941 -5.710370
RightLeg -5.902472 -0.000000 0.000000
RightFoot -10.778762 -16.082252 18.910393
RightToeBase 13.621626 -0.000000 -0.000000
LeftUpLeg 9.512231 1.257952 4.224186
LeftLeg -3.835605 -0.000000 0.000000
LeftFoot -7.424577 10.996014 -20.703185
LeftToeBase 7.947615 -0.000000 -0.000000
Spine 5.724936 -2.984888 -2.362159
RightShoulder -4.248164 -5.661980 -26.452088
RightArm 6.215991 32.303463 31.925711
RightForeArm 4.151352 -0.000000 16.792175
RightHand 0.641012 -0.000000 2.639506
RightHandThumb1 -24.326973 -0.000000 -32.862282
LeftShoulder -23.303799 28.683909 15.004184
LeftArm 50.553359 -53.009232 -59.483637
LeftForeArm 43.413633 -0.000000 2.685899
LeftHand -20.219250 0.000000 -4.218419
LeftHandThumb1 -26.253704 0.000000 33.147579
Head -0.967476 13.113576 2.420370
3
root 0.338796 37.178225 -1.216587 -1.996235 -4.751306 1.469365
RightUpLeg 10.091843 -8.261489 -5.684769
RightLeg -5.915757 -0.000000 0.000000
RightFoot -10.799014 -16.063320 18.922785
RightToeBase 13.835324 -0.000000 -0.000000
LeftUpLeg 9.537912 1.234904 4.249456
LeftLeg -3.826088 -0.000000 0.000000
LeftFoot -7.415488 10.993541 -20.745519
LeftToeBase 7.852312 -0.000000 -0.000000
Spine 5.754211 -2.997508 -2.352389
RightShoulder -4.248720 -5.673041 -26.465735
RightArm 6.211426 32.295279 31.967928
RightForeArm 4.078336 -0.000000 16.823502
RightHand 0.725268 -0.000000 2.691107
RightHandThumb1 -24.326973 -0.000000 -32.862282
LeftShoulder -23.314194 28.705180 14.993526
LeftArm 50.656017 -53.037228 -59.599516
LeftForeArm 43.469141 -0.000000 2.686541
LeftHand -20.179688 0.000000 -4.206786
LeftHandThumb1 -26.253704 0.000000 33.147579
Head -0.993401 13.099109 2.402116
4
root 0.324762 37.177395 -1.217277 -2.022763 -4.727731 1.462173
RightUpLeg 10.128147 -8.251984 -5.658243
RightLeg -5.918830 -0.000000 0.000000
RightFoot -10.822790 -16.122676 18.921694
RightToeBase 13.821823 -0.000000 -0.000000
LeftUpLeg 9.554616 1.217095 4.279022
LeftLeg -3.819532 -0.000000 0.000000
LeftFoot -7.412151 10.991580 -20.719967
LeftToeBase 7.883023 -0.000000 -0.000000
Spine 5.770743 -3.026645 -2.339618
RightShoulder -4.231878 -5.690962 -26.480739
RightArm 6.246899 32.308985 32.014441
RightForeArm 4.050530 -0.000000 16.791807
RightHand 0.741888 -0.000000 2.688258
RightHandThumb1 -24.326973 -0.000000 -32.862282
LeftShoulder -23.318512 28.726146 14.983813
LeftArm 50.689375 -53.039023 -59.626267
LeftForeArm 43.460426 -0.000000 2.661094
LeftHand -20.144356 -0.000000 -4.203065
LeftHandThumb1 -26.253704 0.000000 33.147579
Head -0.983595 13.090042 2.381412
5
root 0.310058 37.176978 -1.218249 -2.046780 -4.697350 1.456405
RightUpLeg 10.168954 -8.213048 -5.626978
RightLeg -5.936001 -0.000000 0.000000
RightFoot -10.849347 -16.200523 18.892339
RightToeBase 13.629121 -0.000000 -0.000000
LeftUpLeg 9.568856 1.181419 4.305522
LeftLeg -3.811311 -0.000000 0.000000
LeftFoot -7.411366 11.001006 -20.721415
LeftToeBase 7.920310 -0.000000 -0.000000
Spine 5.790785 -3.044911 -2.331826
RightShoulder -4.232338 -5.681567 -26.474449
RightArm 6.237622 32.238013 32.005397
RightForeArm 4.058995 -0.000000 16.779125
RightHand 0.739649 -0.000000 2.679198
RightHandThumb1 -24.326973 -0.000000 -32.862282
LeftShoulder -23.322738 28.751858 14.984377
LeftArm 50.731899 -53.019458 -59.668361
LeftForeArm 43.477437 -0.000000 2.662443
LeftHand -20.261743 -0.000000 -3.966819
LeftHandThumb1 -26.253704 0.000000 33.147579
Head -0.998309 13.078272 2.384466
6
root 0.296496 37.176912 -1.219915 -2.062218 -4.667111 1.453816
RightUpLeg 10.196158 -8.205740 -5.601735
RightLeg -5.948388 -0.000000 0.000000
RightFoot -10.879086 -16.232623 18.906243
RightToeBase 13.854034 -0.000000 -0.000000
LeftUpLeg 9.568721 1.165143 4.328978
LeftLeg -3.797351 -0.000000 0.000000
LeftFoot -7.399859 10.998741 -20.730152
LeftToeBase 7.905185 -0.000000 -0.000000
Spine 5.806251 -3.067693 -2.321040
RightShoulder -4.257146 -5.726603 -26.451393
RightArm 6.302188 32.228260 32.010202
RightForeArm 4.093597 0.000000 16.753133
RightHand 0.746218 -0.000000 2.707464
RightHandThumb1 -24.326973 -0.000000 -32.862282
LeftShoulder -23.337300 28.754992 14.966462
LeftArm 50.738982 -52.993571 -59.655292
LeftForeArm 43.472235 -0.000000 2.660604
LeftHand -20.219412 -0.000000 -4.017244
LeftHandThumb1 -26.253704 0.000000 33.147579
Head -1.022090 13.079282 2.355088
7
root 0.283628 37.176756 -1.221905 -2.082134 -4.634230 1.451205
RightUpLeg 10.226641 -8.196953 -5.579253
RightLeg -5.957212 -0.000000 0.000000
RightFoot -10.884874 -16.267613 18.890837
RightToeBase 13.656822 -0.000000 -0.000000
LeftUpLeg 9.570672 1.148174 4.353790
LeftLeg -3.774567 -0.000000 0.000000
LeftFoot -7.394243 10.970289 -20.797680
LeftToeBase 7.853932 -0.000000 -0.000000
Spine 5.819629 -3.095942 -2.304105
RightShoulder -4.242841 -5.710177 -26.465899
RightArm 6.275980 32.207204 32.013287
RightForeArm 4.093454 -0.000000 16.761993
RightHand 0.704319 -0.000000 2.730674
RightHandThumb1 -24.326973 -0.000000 -32.862282
LeftShoulder -23.314157 28.750591 14.964119
LeftArm 50.709357 -53.000657 -59.639505
LeftForeArm 43.450315 -0.000000 2.671031
LeftHand -20.173321 0.000000 -4.278256
LeftHandThumb1 -26.253704 0.000000 33.147579
Head -1.020240 13.067168 2.313200
8
root 0.270482 37.176010 -1.223369 -2.112788 -4.607925 1.447298
RightUpLeg 10.265921 -8.173584 -5.553522
RightLeg -5.962548 -0.000000 0.000000
RightFoot -10.908446 -16.323688 18.856972
RightToeBase 13.641242 -0.000000 -0.000000
LeftUpLeg 9.590736 1.135033 4.378616
LeftLeg -3.764044 -0.000000 0.000000
LeftFoot -7.389577 10.957745 -20.798636
LeftToeBase 7.856636 -0.000000 -0.000000
Spine 5.842008 -3.130259 -2.283889
RightShoulder -4.205275 -5.708323 -26.479032
RightArm 6.228331 32.160376 31.990256
RightForeArm 4.114602 -0.000000 16.785475
RightHand 0.696698 0.000000 2.771860
RightHandThumb1 -24.326973 -0.000000 -32.862282
LeftShoulder -23.319704 28.778180 14.944658
LeftArm 50.719761 -52.992204 -59.648552
LeftForeArm 43.458120 -0.000000 2.675254
LeftHand -20.170101 -0.000000 -4.312473
LeftHandThumb1 -26.253704 0.000000 33.147579
Head -1.004644 13.072997 2.270225
